
<?xml version="1.0" encoding="UTF-8"?>
<svg xmlns="http://www.w3.org/2000/svg" viewBox="0 0 100 100">
  <!-- Bird body -->
  <path d="M30,45 C30,25 45,20 60,20 C75,20 85,30 85,45 C85,60 75,70 60,70 C55,70 50,68 45,65 C40,75 30,80 20,80 L20,75 C30,75 35,70 35,65 C15,60 15,45 30,45 Z" 
    fill="#FFD700" 
    stroke="#000" 
    stroke-width="2"
    stroke-linejoin="round"/>
  
  <!-- Eye -->
  <circle cx="70" cy="40" r="4" fill="#000"/>
  
  <!-- Beak -->
  <path d="M80,40 L95,35 L95,45 Z" 
    fill="#FF8C00" 
    stroke="#000" 
    stroke-width="1.5"
    stroke-linejoin="round"/>
  
  <!-- Wing -->
  <path d="M45,45 C35,45 30,50 35,60" 
    fill="none"
    stroke="#000" 
    stroke-width="2"
    stroke-linecap="round"/>
</svg>
