<?xml version="1.0" encoding="UTF-8" standalone="no"?>
<svg
   viewBox="0 0 24 24"
   fill="currentColor"
   version="1.1"
   id="svg4"
   sodipodi:docname="favicon.svg"
   xml:space="preserve"
   inkscape:version="1.2.2 (b0a8486541, 2022-12-01)"
   xmlns:inkscape="http://www.inkscape.org/namespaces/inkscape"
   xmlns:sodipodi="http://sodipodi.sourceforge.net/DTD/sodipodi-0.dtd"
   xmlns="http://www.w3.org/2000/svg"
   xmlns:svg="http://www.w3.org/2000/svg"><defs
     id="defs8" /><sodipodi:namedview
     id="namedview6"
     pagecolor="#ffffff"
     bordercolor="#666666"
     borderopacity="1.0"
     inkscape:showpageshadow="2"
     inkscape:pageopacity="0.0"
     inkscape:pagecheckerboard="0"
     inkscape:deskcolor="#d1d1d1"
     showgrid="false"
     inkscape:zoom="38.916667"
     inkscape:cx="12"
     inkscape:cy="12.102784"
     inkscape:window-width="1844"
     inkscape:window-height="1131"
     inkscape:window-x="0"
     inkscape:window-y="0"
     inkscape:window-maximized="1"
     inkscape:current-layer="svg4" /><g
     id="g6475"
     transform="translate(-0.29,0.021)"><path
       d="M 0.937,4.937 C 1.772,5.307 2.669,5.557 3.612,5.67 2.65,5.094 1.912,4.18 1.564,3.092 c 0.9,0.534 1.897,0.922 2.958,1.13 0.85,-0.904 2.06,-1.47 3.4,-1.47 2.572,0 4.658,2.086 4.658,4.66 0,0.364 -0.042,0.718 -0.12,1.06 3.873,-0.195 7.304,-2.05 9.602,-4.868 0.4,0.69 0.63,1.49 0.63,2.342 0,1.616 -0.823,3.043 -2.072,3.878 0.764,-0.025 1.482,-0.234 2.11,-0.583 v 0.06 c 0,2.257 -1.605,4.14 -3.737,4.568 0.39,0.106 0.803,0.162 1.227,0.162 0.3,0 0.593,-0.028 0.877,-0.082 -0.593,1.85 -2.313,3.198 -4.352,3.234 1.595,1.25 3.604,1.995 5.786,1.995 0.376,0 0.747,-0.022 1.112,-0.065 -2.062,1.323 -4.51,2.093 -7.14,2.093 C 7.933,21.206 3.248,14.108 3.248,7.952 3.248,7.752 3.253,7.55 3.262,7.35 2.352,6.692 1.562,5.873 0.939,4.94 Z"
       id="path2"
       style="fill:#2563eb;fill-opacity:1" /><circle
       style="fill:#ffffff;fill-opacity:1;stroke:none;stroke-width:8.58807"
       id="path4206"
       cx="7.6659694"
       cy="6.9366474"
       r="1.0101211" /></g></svg>
