<?xml version="1.0" encoding="UTF-8"?>
<svg width="1080" height="174" viewBox="0 0 1080 174" fill="none" xmlns="http://www.w3.org/2000/svg">
  <!-- Yellow Bird Logo -->
  <g transform="translate(150, 30) scale(1.5)">
    <!-- Bird body -->
    <path d="M75,40c0,0-5-7-15-7s-15,7-15,7s-7-15-20-15S5,40,5,40s5,25,35,25c0,0-5,10-20,10v5c0,0,10,0,25-7.5
    c15,7.5,25,7.5,25,7.5v-5c-15,0-20-10-20-10C85,65,95,40,95,40S85,25,75,40z" fill="#FFD700" stroke="#FFF" stroke-width="2"/>
    <!-- Eye -->
    <circle cx="65" cy="35" r="3" fill="#FFF"/>
    <!-- Beak -->
    <path d="M75,35l15-5v10L75,35z" fill="#FFA500" stroke="#FFF" stroke-width="1"/>
    <!-- Foot -->
    <path d="M50,65l-5,10 M50,65l0,10 M50,65l5,10" stroke="#FFA500" stroke-width="2" stroke-linecap="round"/>
  </g>
  
  <!-- Tweeter Text -->
  <text x="500" y="95" font-family="Arial, sans-serif" font-size="65" font-weight="bold" text-anchor="middle" fill="white">Tweeter</text>
</svg>